# xmcd
# 
# Track frame offsets:
#     150
#     20800
#     39975
#     56962
#     75375
#     95312
#     112825
#     132000
#     147625
#     166687
#     181687
# 
# Disc length: 2671
# 
# Revision: 4
# Processed by: cddbd v1.5.2PL0 Copyright (c) Steve Scherf et al.
# Submitted via: BonkEnc v1.0.6
# 
DISCID=840a6d0b
DTITLE=Lake - No Time For Heroes
DYEAR=1984
DGENRE=Rock
TTITLE0=Continental vagabond
TTITLE1=Dreams in the night
TTITLE2=Tell me why
TTITLE3=Heroes
TTITLE4=Never say never
TTITLE5=Instrumental No.1
TTITLE6=Johnny don't go
TTITLE7=Lorraine
TTITLE8=Scotsman
TTITLE9=Lady Divine
TTITLE10=Fight it together
EXTD=
EXTT0=
EXTT1=
EXTT2=
EXTT3=
EXTT4=
EXTT5=
EXTT6=
EXTT7=
EXTT8=
EXTT9=
EXTT10=
PLAYORDER=
